<svg xmlns="http://www.w3.org/2000/svg" version="1.1" xmlns:xlink="http://www.w3.org/1999/xlink" xmlns:svgjs="http://svgjs.dev/svgjs" width="1500" height="1500" viewBox="0 0 1500 1500"><rect width="1500" height="1500" fill="#000000"></rect><g transform="matrix(0.6666666666666666,0,0,0.6666666666666666,249.3939393939395,617.9506826249572)"><svg viewBox="0 0 396 105" data-background-color="#f6f2f2" preserveAspectRatio="xMidYMid meet" height="397" width="1500" xmlns="http://www.w3.org/2000/svg" xmlns:xlink="http://www.w3.org/1999/xlink"><g id="tight-bounds" transform="matrix(1,0,0,1,0.23999999999995225,-0.11267635624875538)"><svg viewBox="0 0 395.52 105.22535271249751" height="105.22535271249751" width="395.52"><g><svg viewBox="0 0 589.1090381416201 156.72837359570218" height="105.22535271249751" width="395.52"><g><rect width="7.654619755344501" height="113.97396198529715" x="165.89614677542613" y="21.377205805202514" fill="#ffffff" opacity="1" stroke-width="0" stroke="transparent" fill-opacity="1" class="rect-qz-0" data-fill-palette-color="secondary" rx="1%" id="qz-0" data-palette-color="#01ff70"></rect></g><g transform="matrix(1,0,0,1,193.5890381416201,21.660723123573895)"><svg viewBox="0 0 395.52 113.40692734855439" height="113.40692734855439" width="395.52"><g id="textblocktransform"><svg viewBox="0 0 395.52 113.40692734855439" height="113.40692734855439" width="395.52" id="textblock"><g><svg viewBox="0 0 395.52 84.88059612518629" height="84.88059612518629" width="395.52"><g transform="matrix(1,0,0,1,0,0)"><svg width="395.52" viewBox="1.61 -34.35 163.80999999999997 35.160000000000004" height="84.88059612518629" data-palette-color="#01ff70"><path d="M27.54-8.35L27.54 0 1.61 0 1.61-2.15 4.2-2.34Q4.74-2.39 5.02-2.73 5.3-3.08 5.3-3.44L5.3-3.44 5.3-30.1Q5.3-30.47 5.02-30.82 4.74-31.18 4.2-31.2L4.2-31.2 1.61-31.4 1.61-33.54 25.9-33.54 25.9-26.1 22.9-26.1 22.14-30.2Q22.12-30.57 21.85-30.86 21.58-31.15 21.24-31.15L21.24-31.15 10.4-31.15 10.4-18.7 17.9-18.7Q18.24-18.7 18.52-18.99 18.8-19.29 18.8-19.56L18.8-19.56 19.31-23 21.85-23 21.85-11.84 19.31-11.84 18.8-15.31Q18.8-15.58 18.51-15.89 18.21-16.21 17.9-16.21L17.9-16.21 10.4-16.21 10.4-2.44 23.05-2.44Q23.36-2.44 23.65-2.8 23.93-3.15 23.95-3.39L23.95-3.39 24.85-8.35 27.54-8.35ZM44.46-13.31L44.46-9.64 32.15-9.64 32.15-13.31 44.46-13.31ZM71.6-9.4L71.6-9.4Q71.6-6.88 70.25-4.54 68.89-2.2 65.97-0.7 63.06 0.81 58.34 0.81L58.34 0.81Q55.66 0.81 53.66 0.34 51.66-0.12 50.56-0.59 49.46-1.05 49.46-1.05L49.46-1.05 49.46-9.91 52.61-9.91 53.27-4.25Q53.32-3.96 53.58-3.61 53.85-3.27 54.1-3.15L54.1-3.15Q54.22-3.13 55.52-2.56 56.83-2 59.15-2L59.15-2Q62.35-2 64.42-3.56 66.5-5.13 66.5-7.91L66.5-7.91Q66.5-9.42 65.66-10.56 64.81-11.69 63.47-12.57 62.13-13.45 60.6-14.17 59.08-14.89 57.71-15.55L57.71-15.55Q55.66-16.53 53.9-17.64 52.14-18.75 51.07-20.39 50-22.02 50-24.56L50-24.56Q50-27.54 51.51-29.74 53.02-31.93 55.63-33.14 58.25-34.35 61.54-34.35L61.54-34.35Q64.23-34.35 66.28-33.83 68.33-33.3 69.92-32.79L69.92-32.79 70.36-32.64 70.36-24.85 67.5-24.85 66.74-29.64Q66.69-29.98 66.44-30.14 66.18-30.3 65.96-30.52L65.96-30.52Q65.77-30.66 64.75-31.15 63.74-31.64 61.62-31.64L61.62-31.64Q58.61-31.64 56.88-29.97 55.15-28.3 55.15-25.76L55.15-25.76Q55.15-23.46 56.94-21.95 58.74-20.43 62.1-19.14L62.1-19.14Q66.65-17.43 69.12-15.3 71.6-13.16 71.6-9.4ZM109.1-2.15L109.1 0 96.45 0 96.45-2.15 99.31-2.34Q99.82-2.39 100.09-2.73 100.36-3.08 100.36-3.44L100.36-3.44 100.36-16.36 83.9-16.36 83.9-3.44Q83.9-3.08 84.16-2.73 84.42-2.39 84.95-2.34L84.95-2.34 87.81-2.15 87.81 0 75.16 0 75.16-2.15 77.75-2.34Q78.29-2.39 78.57-2.73 78.85-3.08 78.85-3.44L78.85-3.44 78.85-30.1Q78.85-30.47 78.57-30.8 78.29-31.13 77.75-31.15L77.75-31.15 75.16-31.35 75.16-33.54 87.81-33.54 87.81-31.35 84.95-31.15Q84.42-31.13 84.16-30.8 83.9-30.47 83.9-30.1L83.9-30.1 83.9-18.85 100.36-18.85 100.36-30.1Q100.36-30.47 100.09-30.8 99.82-31.13 99.31-31.15L99.31-31.15 96.45-31.35 96.45-33.54 109.1-33.54 109.1-31.35 106.51-31.15Q105.97-31.13 105.69-30.8 105.41-30.47 105.41-30.1L105.41-30.1 105.41-3.44Q105.41-3.08 105.69-2.73 105.97-2.39 106.51-2.34L106.51-2.34 109.1-2.15ZM138.25-8.35L138.25 0 112.32 0 112.32-2.15 114.91-2.34Q115.44-2.39 115.72-2.73 116.01-3.08 116.01-3.44L116.01-3.44 116.01-30.1Q116.01-30.47 115.72-30.82 115.44-31.18 114.91-31.2L114.91-31.2 112.32-31.4 112.32-33.54 136.61-33.54 136.61-26.1 133.61-26.1 132.85-30.2Q132.83-30.57 132.56-30.86 132.29-31.15 131.95-31.15L131.95-31.15 121.11-31.15 121.11-18.7 128.6-18.7Q128.95-18.7 129.23-18.99 129.51-19.29 129.51-19.56L129.51-19.56 130.02-23 132.56-23 132.56-11.84 130.02-11.84 129.51-15.31Q129.51-15.58 129.21-15.89 128.92-16.21 128.6-16.21L128.6-16.21 121.11-16.21 121.11-2.44 133.75-2.44Q134.07-2.44 134.35-2.8 134.63-3.15 134.66-3.39L134.66-3.39 135.56-8.35 138.25-8.35ZM165.42-33.54L165.42-25.61 162.46-25.61 161.76-30.2Q161.68-30.57 161.46-30.83 161.24-31.1 160.9-31.1L160.9-31.1 150.26-31.1 150.26-18.09 157.9-18.09Q158.24-18.09 158.51-18.42 158.78-18.75 158.8-18.99L158.8-18.99 159.26-22.51 161.76-22.51 161.76-11.25 159.26-11.25 158.8-14.75Q158.78-15.01 158.5-15.33 158.22-15.65 157.9-15.65L157.9-15.65 150.26-15.65 150.26-3.44Q150.26-3.08 150.51-2.73 150.77-2.39 151.31-2.34L151.31-2.34 154.65-2.15 154.65 0 141.52 0 141.52-2.15 144.15-2.34Q144.69-2.39 144.95-2.73 145.2-3.08 145.2-3.44L145.2-3.44 145.2-30.1Q145.2-30.47 144.95-30.82 144.69-31.18 144.15-31.2L144.15-31.2 141.1-31.4 141.1-33.54 165.42-33.54Z" opacity="1" transform="matrix(1,0,0,1,0,0)" fill="#ffffff" class="wordmark-text-0" data-fill-palette-color="primary" id="text-0"></path></svg></g></svg></g><g transform="matrix(1,0,0,1,0,104.91886773603576)"><svg viewBox="0 0 395.52 8.48805961251863" height="8.48805961251863" width="395.52"><g transform="matrix(1,0,0,1,0,0)"><svg width="395.52" viewBox="0.5 -35.6 1686.82 36.2" height="8.48805961251863" data-palette-color="#01ff70"><path d="M17.4 0L12.65 0 12.65-13.3 0.5-33.05 4.5-35.45 15.2-17.7 25.7-35.25 29.45-33.05 17.4-13.3 17.4 0ZM110.4 0.6L110.4 0.6Q106.5 0.6 103.45-0.83 100.4-2.25 98.28-4.73 96.15-7.2 95.03-10.5 93.9-13.8 93.9-17.55L93.9-17.55Q93.9-22.7 95.88-26.78 97.85-30.85 101.55-33.23 105.25-35.6 110.4-35.6L110.4-35.6Q114.25-35.6 117.33-34.2 120.4-32.8 122.55-30.3 124.7-27.8 125.83-24.55 126.95-21.3 126.95-17.55L126.95-17.55Q126.95-13.8 125.83-10.5 124.7-7.2 122.55-4.73 120.4-2.25 117.35-0.83 114.3 0.6 110.4 0.6ZM110.4-3.5L110.4-3.5Q114.25-3.5 116.85-5.35 119.45-7.2 120.78-10.38 122.1-13.55 122.1-17.55L122.1-17.55Q122.1-20.25 121.3-22.75 120.5-25.25 119-27.23 117.5-29.2 115.33-30.35 113.15-31.5 110.4-31.5L110.4-31.5Q106.75-31.5 104.13-29.65 101.5-27.8 100.13-24.65 98.75-21.5 98.75-17.55L98.75-17.55Q98.75-14.85 99.53-12.33 100.3-9.8 101.8-7.8 103.3-5.8 105.48-4.65 107.65-3.5 110.4-3.5ZM209.6 0.6L209.6 0.6Q203.55 0.6 200.1-3 196.65-6.6 196.65-13.3L196.65-13.3 196.65-35 201.4-35 201.4-14.05Q201.4-9.05 203.45-6.3 205.5-3.55 209.6-3.55L209.6-3.55Q213.85-3.55 215.95-6.23 218.05-8.9 218.05-14.05L218.05-14.05 218.05-35 222.65-35 222.65-13.5Q222.65-9.1 221.03-5.93 219.4-2.75 216.48-1.07 213.55 0.6 209.6 0.6ZM319.2-1.5L314.75 0.6 310.4-8.9Q308.75-12.45 306.25-13.95 303.75-15.45 299.85-15.45L299.85-15.45 299.1-15.45 299.1 0 294.35 0 294.35-34.9Q297-35.15 299.43-35.27 301.85-35.4 304.6-35.4L304.6-35.4Q311-35.4 314.23-32.8 317.45-30.2 317.45-26.1L317.45-26.1Q317.45-22.45 315.28-20.23 313.1-18 309-16.9L309-16.9Q310.35-16.3 311.4-15.48 312.45-14.65 313.43-13.28 314.4-11.9 315.4-9.7L315.4-9.7 319.2-1.5ZM299.1-31.2L299.1-19.45 304.6-19.45Q308.2-19.45 310.45-21.05 312.7-22.65 312.7-25.65L312.7-25.65Q312.7-28.15 310.6-29.78 308.5-31.4 304.6-31.4L304.6-31.4Q302.9-31.4 301.55-31.35 300.2-31.3 299.1-31.2L299.1-31.2ZM471.86 0L467.11 0 467.11-35 471.86-35 471.86-20.05 489.11-20.05 489.11-35 493.86-35 493.86 0 489.11 0 489.11-15.95 471.86-15.95 471.86 0ZM587.31 0L566.31 0 566.31-35 587.31-35 587.31-30.9 571.06-30.9 571.06-20.25 585.06-20.25 585.06-16.25 571.06-16.25 571.06-4.1 587.31-4.1 587.31 0ZM685.91-1.25L681.56 0.5 677.66-9.5 661.46-9.5 657.56 0.4 653.51-1.25 667.21-35 672.41-35 685.91-1.25ZM669.56-30.3L662.96-13.5 676.11-13.5 669.56-30.3ZM775.16 0L754.36 0 754.36-35 759.11-35 759.11-4.25 775.16-4.25 775.16 0ZM851.86 0L847.11 0 847.11-30.8 836.36-30.8 836.36-35 862.61-35 862.61-30.8 851.86-30.8 851.86 0ZM935.81 0L931.06 0 931.06-35 935.81-35 935.81-20.05 953.06-20.05 953.06-35 957.81-35 957.81 0 953.06 0 953.06-15.95 935.81-15.95 935.81 0ZM1043.16 0L1038.41 0 1038.41-13.3 1026.26-33.05 1030.26-35.45 1040.96-17.7 1051.46-35.25 1055.21-33.05 1043.16-13.3 1043.16 0ZM1215.56 0.6L1215.56 0.6Q1211.01 0.6 1207.51-1.58 1204.01-3.75 1202.06-7.78 1200.11-11.8 1200.11-17.35L1200.11-17.35Q1200.11-22.7 1202.09-26.83 1204.06-30.95 1207.69-33.27 1211.31-35.6 1216.16-35.6L1216.16-35.6Q1218.66-35.6 1220.71-35.13 1222.76-34.65 1224.56-33.8L1224.56-33.8 1223.11-29.8Q1221.56-30.55 1219.94-31 1218.31-31.45 1216.11-31.45L1216.11-31.45Q1212.91-31.45 1210.39-29.8 1207.86-28.15 1206.41-25.05 1204.96-21.95 1204.96-17.55L1204.96-17.55Q1204.96-13.35 1206.39-10.2 1207.81-7.05 1210.34-5.3 1212.86-3.55 1216.11-3.55L1216.11-3.55Q1218.56-3.55 1220.36-4.15 1222.16-4.75 1223.86-5.7L1223.86-5.7 1225.31-1.75Q1223.46-0.75 1221.09-0.08 1218.71 0.6 1215.56 0.6ZM1300.02 0L1295.27 0 1295.27-35 1300.02-35 1300.02-20.05 1317.27-20.05 1317.27-35 1322.02-35 1322.02 0 1317.27 0 1317.27-15.95 1300.02-15.95 1300.02 0ZM1408.97 0.6L1408.97 0.6Q1405.07 0.6 1402.02-0.83 1398.97-2.25 1396.84-4.73 1394.72-7.2 1393.59-10.5 1392.47-13.8 1392.47-17.55L1392.47-17.55Q1392.47-22.7 1394.44-26.78 1396.42-30.85 1400.12-33.23 1403.82-35.6 1408.97-35.6L1408.97-35.6Q1412.82-35.6 1415.89-34.2 1418.97-32.8 1421.12-30.3 1423.27-27.8 1424.39-24.55 1425.52-21.3 1425.52-17.55L1425.52-17.55Q1425.52-13.8 1424.39-10.5 1423.27-7.2 1421.12-4.73 1418.97-2.25 1415.92-0.83 1412.87 0.6 1408.97 0.6ZM1408.97-3.5L1408.97-3.5Q1412.82-3.5 1415.42-5.35 1418.02-7.2 1419.34-10.38 1420.67-13.55 1420.67-17.55L1420.67-17.55Q1420.67-20.25 1419.87-22.75 1419.07-25.25 1417.57-27.23 1416.07-29.2 1413.89-30.35 1411.72-31.5 1408.97-31.5L1408.97-31.5Q1405.32-31.5 1402.69-29.65 1400.07-27.8 1398.69-24.65 1397.32-21.5 1397.32-17.55L1397.32-17.55Q1397.32-14.85 1398.09-12.33 1398.87-9.8 1400.37-7.8 1401.87-5.8 1404.04-4.65 1406.22-3.5 1408.97-3.5ZM1500.72 0L1495.97 0 1495.97-35 1500.72-35 1500.72 0ZM1586.62 0.6L1586.62 0.6Q1582.07 0.6 1578.57-1.58 1575.07-3.75 1573.12-7.78 1571.17-11.8 1571.17-17.35L1571.17-17.35Q1571.17-22.7 1573.14-26.83 1575.12-30.95 1578.74-33.27 1582.37-35.6 1587.22-35.6L1587.22-35.6Q1589.72-35.6 1591.77-35.13 1593.82-34.65 1595.62-33.8L1595.62-33.8 1594.17-29.8Q1592.62-30.55 1590.99-31 1589.37-31.45 1587.17-31.45L1587.17-31.45Q1583.97-31.45 1581.44-29.8 1578.92-28.15 1577.47-25.05 1576.02-21.95 1576.02-17.55L1576.02-17.55Q1576.02-13.35 1577.44-10.2 1578.87-7.05 1581.39-5.3 1583.92-3.55 1587.17-3.55L1587.17-3.55Q1589.62-3.55 1591.42-4.15 1593.22-4.75 1594.92-5.7L1594.92-5.7 1596.37-1.75Q1594.52-0.75 1592.14-0.08 1589.77 0.6 1586.62 0.6ZM1687.32 0L1666.32 0 1666.32-35 1687.32-35 1687.32-30.9 1671.07-30.9 1671.07-20.25 1685.07-20.25 1685.07-16.25 1671.07-16.25 1671.07-4.1 1687.32-4.1 1687.32 0Z" opacity="1" transform="matrix(1,0,0,1,0,0)" fill="#ffffff" class="slogan-text-1" data-fill-palette-color="secondary" id="text-1"></path></svg></g></svg></g></svg></g></svg></g><g><svg viewBox="0 0 145.85787516457665 156.72837359570218" height="156.72837359570218" width="145.85787516457665"><g><svg xmlns="http://www.w3.org/2000/svg" xmlns:xlink="http://www.w3.org/1999/xlink" version="1.1" x="8" y="0" viewBox="10.97290259637664 0.0005 106.05446040680428 127.9995" style="enable-background:new 0 0 128 128;" xml:space="preserve" height="156.72837359570218" width="129.85787516457665" class="icon-icon-0" data-fill-palette-color="accent" id="icon-0"><path d="M42.251 51.989c0 0.002 0 0.004 0 0.006-0.2-0.135-0.465-0.294-0.795-0.477l-0.198-0.111C40.806 51.148 40.33 51 39.953 51c-0.383 0-0.628 0.115-0.745 0.703-0.433 2.175-0.17 4.77 0.76 7.504 1.081 3.179 2.344 5.096 3.753 5.699C43.903 64.983 44.022 65 44.09 65c0.218 0 0.472-0.346 0.664-0.993-0.284-0.874-0.555-1.756-0.797-2.647C43.1 58.218 42.529 55.042 42.251 51.989z" fill="#ffffff" data-fill-palette-color="accent"></path><path d="M70.544 8.398C69.536 8.137 68.551 7.917 67.6 7.74v22.787c0.236 0.016 0.469 0.033 0.697 0.052L70.544 8.398z" fill="#ffffff" data-fill-palette-color="accent"></path><path d="M60.403 30.527V7.74c-0.953 0.177-1.938 0.396-2.945 0.657l2.245 22.182C59.933 30.56 60.167 30.543 60.403 30.527z" fill="#ffffff" data-fill-palette-color="accent"></path><path d="M83.248 64.005C83.44 64.653 83.694 65 83.912 65c0.068 0 0.187-0.017 0.37-0.095 1.409-0.603 2.671-2.52 3.752-5.698 0.93-2.734 1.193-5.329 0.76-7.504C88.677 51.115 88.433 51 88.049 51c-0.377 0-0.853 0.148-1.305 0.407l-0.198 0.111c-0.331 0.184-0.596 0.343-0.797 0.478 0-0.001 0-0.002 0-0.002-0.278 3.049-0.849 6.224-1.705 9.366-0.243 0.892-0.514 1.774-0.798 2.65C83.247 64.009 83.248 64.007 83.248 64.005z" fill="#ffffff" data-fill-palette-color="accent"></path><path d="M50.112 50.703c-0.662 0.366-1.205 0.812-1.594 1.189 0.537 0.306 1.104 0.532 1.687 0.712C50.078 52.26 50 51.89 50 51.5 50 51.223 50.046 50.959 50.112 50.703z" fill="#ffffff" data-fill-palette-color="accent"></path><path d="M56 51.5c0 0.371-0.074 0.722-0.189 1.053 0.555-0.157 1.066-0.33 1.469-0.497-0.442-0.389-0.884-0.717-1.323-0.995C55.977 51.205 56 51.35 56 51.5z" fill="#ffffff" data-fill-palette-color="accent"></path><path d="M80.257 11.848c-0.915-0.402-1.823-0.781-2.716-1.135l-2.128 21.029c0.437 0.111 0.866 0.23 1.288 0.355L80.257 11.848z" fill="#ffffff" data-fill-palette-color="accent"></path><ellipse cx="53" cy="51.4997482" rx="1" ry="1.1079" fill="#ffffff" data-fill-palette-color="accent"></ellipse><path d="M44.503 35.003L41.018 15.159c-0.97 0.53-1.642 0.926-1.934 1.1l4.154 19.537C43.647 35.522 44.069 35.258 44.503 35.003z" fill="#ffffff" data-fill-palette-color="accent"></path><path d="M52.587 31.742l-2.129-21.029c-0.899 0.356-1.807 0.735-2.715 1.134l3.557 20.25C51.722 31.973 52.151 31.854 52.587 31.742z" fill="#ffffff" data-fill-palette-color="accent"></path><rect x="62.4028015" y="89.3622971" width="3.1968" height="5.1367002" fill="#ffffff" data-fill-palette-color="accent"></rect><path d="M62.403 113.208c0.224 0.259 0.7 0.735 1.598 1.361 0.895-0.624 1.373-1.103 1.599-1.362v-0.959h-3.197V113.208z" fill="#ffffff" data-fill-palette-color="accent"></path><path d="M88.916 16.257c-0.285-0.171-0.956-0.564-1.932-1.099l-3.486 19.845c0.433 0.255 0.855 0.52 1.265 0.793L88.916 16.257z" fill="#ffffff" data-fill-palette-color="accent"></path><path d="M30.869 89.246h13.945v-3.244H29.884C30.226 87.026 30.552 88.101 30.869 89.246z" fill="#ffffff" data-fill-palette-color="accent"></path><path d="M24.83 75.497c0.707 1.038 1.366 2.126 1.971 3.252h18.013L44.815 76.938c-0.276-0.474-0.545-0.954-0.809-1.441H24.83z" fill="#ffffff" data-fill-palette-color="accent"></path><path d="M42.42 119.181c0.714 0.34 1.516 0.629 2.394 0.861v-2.539H39.904C40.645 118.176 41.471 118.725 42.42 119.181z" fill="#ffffff" data-fill-palette-color="accent"></path><path d="M33.162 99.465l0.058 0.287h11.594v-3.253H32.567C32.771 97.491 32.967 98.479 33.162 99.465z" fill="#ffffff" data-fill-palette-color="accent"></path><rect x="62.4028015" y="101.7519989" width="3.1968" height="3.2451" fill="#ffffff" data-fill-palette-color="accent"></rect><path d="M98.911 11.519c-0.13-0.332-0.428-0.569-0.781-0.623l-5.472-0.832C90.851 8.97 76.903 0.765 64.059 0.002 64.02 0 63.98 0 63.941 0.002c-12.845 0.763-26.789 8.968-28.595 10.062L29.87 10.896c-0.353 0.054-0.65 0.291-0.781 0.623-0.056 0.142-5.629 14.39-10.525 28.863C8.431 70.34 10.95 72.042 12.16 72.859c9.684 6.545 11.857 17.497 13.958 28.09C28.878 114.86 31.485 128 51.009 128c0.552 0 1-0.447 1-1V86.052c1.042 0.938 2.111 1.757 3.197 2.448v25.373c0 4.855 7.524 8.397 8.382 8.785 0.263 0.119 0.562 0.119 0.824 0 0.858-0.388 8.384-3.93 8.384-8.785V88.497c1.084-0.688 2.152-1.506 3.195-2.444V127c0 0.553 0.448 1 1 1 19.525 0 22.132-13.141 24.892-27.052 2.101-10.592 4.273-21.545 13.956-28.088 1.211-0.818 3.732-2.52-6.402-32.479C104.54 25.908 98.966 11.661 98.911 11.519zM104.721 42.679c0.636 1.882 1.211 3.632 1.736 5.265 0.098 0.305 0.045 0.638-0.144 0.896-0.188 0.259-0.488 0.411-0.808 0.411H92.083c-0.654-1.104-1.699-1.853-2.964-2.126-0.026-1.374-0.103-2.723-0.262-4.004-0.035-0.284 0.054-0.57 0.244-0.784 0.19-0.215 0.462-0.338 0.749-0.338h13.923C104.203 41.999 104.583 42.272 104.721 42.679zM93.861 18.002c0.092-0.434 0.459-0.755 0.901-0.789 0.441-0.036 0.854 0.227 1.012 0.642 0.888 2.338 2.068 5.467 3.38 9.05 0.112 0.307 0.068 0.648-0.119 0.916-0.187 0.268-0.493 0.428-0.82 0.428h-5.298c-0.302 0-0.587-0.136-0.777-0.371-0.189-0.234-0.264-0.542-0.201-0.837L93.861 18.002zM91.798 31.499h8.32c0.422 0 0.799 0.266 0.941 0.662 0.613 1.71 1.234 3.471 1.86 5.259 0.107 0.306 0.059 0.645-0.129 0.908-0.188 0.265-0.491 0.422-0.815 0.422H90.687c-0.302 0-0.587-0.136-0.777-0.37-0.19-0.234-0.264-0.542-0.201-0.837l1.111-5.251C90.918 31.83 91.326 31.499 91.798 31.499zM85.797 12.727c0.287-0.142 0.623-0.138 0.907 0.012 2.113 1.11 3.409 1.903 3.42 1.91l0.445 0.278c0.357 0.223 0.537 0.644 0.45 1.056l-4.617 21.723c-0.071 0.336-0.31 0.611-0.632 0.731-0.112 0.041-0.229 0.062-0.346 0.061-0.217 0-0.431-0.07-0.609-0.206-0.889-0.682-1.868-1.318-2.907-1.894-0.374-0.206-0.575-0.627-0.502-1.047l3.847-21.9C85.309 13.137 85.511 12.867 85.797 12.727zM75.683 9.209c0.031-0.309 0.204-0.585 0.467-0.749 0.264-0.164 0.588-0.198 0.878-0.087 1.545 0.579 3.147 1.24 4.76 1.966 0.417 0.188 0.653 0.635 0.574 1.085l-3.889 22.141C78.423 33.853 78.25 34.103 78 34.252c-0.156 0.093-0.334 0.141-0.512 0.141-0.106 0-0.213-0.017-0.316-0.052-0.969-0.323-2.001-0.612-3.067-0.859-0.491-0.114-0.82-0.574-0.77-1.075L75.683 9.209zM65.6 6.557c0-0.292 0.127-0.568 0.348-0.759 0.221-0.19 0.512-0.276 0.803-0.23 1.625 0.248 3.354 0.625 5.141 1.12 0.47 0.13 0.777 0.58 0.728 1.065L70.188 31.767c-0.027 0.265-0.158 0.508-0.365 0.674-0.179 0.146-0.402 0.225-0.631 0.225-0.035 0-0.069-0.002-0.104-0.006-0.793-0.083-1.647-0.146-2.537-0.19-0.533-0.026-0.951-0.466-0.951-0.999V6.557zM56.109 6.688c1.783-0.494 3.513-0.871 5.143-1.12 0.286-0.047 0.581 0.04 0.802 0.23 0.221 0.19 0.349 0.467 0.349 0.759v24.914c0 0.533-0.418 0.973-0.951 0.999-0.886 0.043-1.741 0.107-2.541 0.19-0.034 0.004-0.069 0.006-0.103 0.006-0.229 0-0.452-0.078-0.632-0.225-0.206-0.167-0.337-0.41-0.364-0.674L55.382 7.753C55.333 7.269 55.64 6.819 56.109 6.688zM46.212 10.339c1.594-0.718 3.194-1.38 4.758-1.968 0.29-0.108 0.614-0.078 0.879 0.087 0.264 0.163 0.437 0.44 0.467 0.749l2.349 23.2c0.05 0.501-0.279 0.961-0.77 1.075-1.062 0.245-2.094 0.534-3.066 0.859-0.103 0.035-0.21 0.052-0.317 0.052-0.178 0-0.355-0.048-0.512-0.141-0.25-0.149-0.422-0.399-0.473-0.687l-3.889-22.141C45.559 10.974 45.795 10.527 46.212 10.339zM37.434 14.924l0.442-0.273c0.057-0.034 1.351-0.824 3.422-1.912 0.282-0.15 0.619-0.154 0.906-0.012 0.287 0.141 0.489 0.41 0.544 0.724l3.846 21.9c0.074 0.421-0.127 0.842-0.501 1.047-1.043 0.576-2.021 1.213-2.907 1.893-0.177 0.137-0.392 0.207-0.608 0.207-0.117 0-0.234-0.021-0.347-0.061-0.322-0.119-0.561-0.395-0.631-0.731L36.981 15.983C36.893 15.57 37.074 15.146 37.434 14.924zM28.848 26.905c1.312-3.583 2.491-6.712 3.381-9.051 0.158-0.414 0.575-0.672 1.011-0.641 0.442 0.034 0.809 0.355 0.901 0.789L36.063 27.041c0.063 0.295-0.011 0.603-0.201 0.837-0.19 0.235-0.476 0.371-0.778 0.371h-5.297c-0.327 0-0.633-0.159-0.82-0.428C28.78 27.554 28.736 27.212 28.848 26.905zM25.081 37.421c0.624-1.788 1.247-3.55 1.859-5.259 0.142-0.398 0.519-0.663 0.942-0.663h8.319c0.472 0 0.88 0.33 0.978 0.792l1.115 5.251c0.063 0.295-0.011 0.603-0.201 0.837C37.903 38.614 37.618 38.75 37.316 38.75h-11.29c-0.324 0-0.628-0.157-0.816-0.421C25.023 38.064 24.975 37.727 25.081 37.421zM21.545 47.945c0.524-1.634 1.101-3.384 1.734-5.265 0.137-0.406 0.519-0.681 0.948-0.681h13.926c0.287 0 0.56 0.123 0.75 0.339 0.19 0.215 0.278 0.501 0.243 0.786-0.159 1.269-0.237 2.618-0.264 4.002-1.265 0.272-2.309 1.021-2.963 2.125H22.497c-0.319 0-0.62-0.152-0.807-0.41C21.501 48.582 21.447 48.25 21.545 47.945zM18.379 58.485c0.441-1.618 0.953-3.392 1.52-5.274C20.026 52.789 20.416 52.5 20.856 52.5h14.214c-0.058 0.653-0.079 1.319-0.054 2h-13.415c-0.337 1.13-0.652 2.216-0.943 3.248h14.767c0.139 0.656 0.316 1.324 0.523 2H19.344c-0.312 0-0.605-0.146-0.795-0.393C18.36 59.107 18.297 58.785 18.379 58.485zM17.102 70.019c-0.166-0.14-0.329-0.27-0.498-0.401-0.264-0.205-0.408-0.529-0.382-0.862 0.088-1.201 0.369-2.874 0.833-4.972C17.156 63.326 17.562 63 18.031 63h19.136c0.307 0.674 0.654 1.352 1.063 2H18.839c-0.311 1.487-0.475 2.534-0.559 3.253h22.442c-0.086-0.231-0.158-0.472-0.242-0.705 0.508 0.405 1.05 0.771 1.667 1.035 0.321 0.138 0.644 0.24 0.966 0.311 0.118 0.305 0.08 0.648-0.103 0.919-0.186 0.274-0.497 0.439-0.828 0.44H17.746C17.51 70.253 17.282 70.17 17.102 70.019zM46.814 121.296c0 0.299-0.133 0.582-0.364 0.771-0.18 0.149-0.406 0.229-0.636 0.229-0.063 0-0.127-0.006-0.191-0.019-1.517-0.295-2.885-0.73-4.065-1.293-1.916-0.919-3.407-2.153-4.694-3.884-0.226-0.304-0.26-0.708-0.091-1.046 0.17-0.338 0.516-0.551 0.894-0.551h8.147c0.552 0 1 0.447 1 1V121.296zM46.814 111.248c0 0.553-0.448 1-1 1H35.014c-0.423 0-0.8-0.266-0.942-0.664-0.535-1.5-1.037-3.252-1.532-5.357-0.07-0.298 0-0.611 0.19-0.851 0.189-0.239 0.478-0.379 0.784-0.379h12.3c0.552 0 1 0.447 1 1V111.248zM46.814 100.752c0 0.553-0.448 1-1 1H32.399c-0.477 0-0.889-0.338-0.98-0.807l-0.206-1.028c-0.285-1.439-0.559-2.819-0.854-4.211-0.063-0.295 0.012-0.603 0.201-0.837 0.19-0.234 0.475-0.37 0.777-0.37h14.477c0.552 0 1 0.447 1 1V100.752zM46.814 90.246c0 0.553-0.448 1-1 1H30.104c-0.453 0-0.85-0.305-0.966-0.743-0.504-1.895-1.028-3.582-1.601-5.16-0.111-0.307-0.066-0.647 0.121-0.915 0.187-0.267 0.493-0.426 0.819-0.426h17.337c0.552 0 1 0.447 1 1V90.246zM46.815 79.749c0 0.553-0.448 1-1 1H26.198c-0.374 0-0.717-0.209-0.889-0.541-0.939-1.817-2.025-3.534-3.229-5.102-0.231-0.303-0.272-0.71-0.103-1.051 0.168-0.342 0.516-0.558 0.897-0.558h21.732c0.372 0 0.712 0.206 0.886 0.535 0.38 0.724 0.776 1.433 1.185 2.126 0.09 0.154 0.138 0.329 0.138 0.508V79.749zM67.6 113.549c0 0.197-0.058 0.39-0.168 0.554-0.205 0.309-0.859 1.145-2.507 2.257l-0.383 0.252c-0.165 0.107-0.354 0.16-0.542 0.16-0.189 0-0.378-0.054-0.544-0.161l-0.328-0.215c-1.705-1.152-2.356-1.987-2.559-2.295-0.108-0.164-0.166-0.355-0.166-0.552v-2.301c0-0.553 0.448-1 1-1h5.197c0.552 0 1 0.447 1 1V113.549zM67.6 105.997c0 0.553-0.448 1-1 1h-5.197c-0.552 0-1-0.447-1-1v-5.245c0-0.553 0.448-1 1-1h5.197c0.552 0 1 0.447 1 1V105.997zM67.6 95.499c0 0.553-0.448 1-1 1h-5.197c-0.552 0-1-0.447-1-1v-7.137c0-0.553 0.448-1 1-1h5.197c0.552 0 1 0.447 1 1V95.499zM71.581 82.947c-0.465 0.37-0.93 0.707-1.383 1.002-0.162 0.105-0.351 0.161-0.545 0.161H58.349c-0.193 0-0.381-0.056-0.544-0.16-0.453-0.294-0.919-0.632-1.385-1.005-2.583-2.055-5.101-5.142-7.279-8.925-1.337-2.324-2.533-4.892-3.545-7.587 0 0.001 0.001 0.003 0.002 0.004C45.077 66.888 44.515 67 44.09 67c0 0 0 0-0.001 0-0.37 0-0.759-0.086-1.155-0.255-1.98-0.848-3.57-3.103-4.86-6.893-1.058-3.11-1.337-5.983-0.828-8.54C37.534 49.865 38.546 49 39.953 49c0.674 0 1.425 0.213 2.135 0.59-0.022-0.561-0.034-1.115-0.034-1.662 0-1.352 0.069-2.67 0.206-3.916 0.018-0.161 0.075-0.315 0.166-0.45C42.662 43.212 43.995 41.375 47.04 39.572c5.462-3.235 12.237-3.915 16.96-3.915S75.497 36.337 80.96 39.572c3.192 1.891 4.486 3.793 4.624 4.004 0.085 0.131 0.138 0.279 0.156 0.435 0.138 1.249 0.208 2.567 0.208 3.917 0 0.547-0.012 1.102-0.034 1.662C86.624 49.214 87.376 49 88.049 49c1.407 0 2.418 0.865 2.707 2.313 0.509 2.556 0.23 5.429-0.828 8.539-1.29 3.791-2.879 6.046-4.86 6.892C84.671 66.914 84.283 67 83.912 67c-0.425 0-0.988-0.113-1.509-0.564-1.012 2.695-2.208 5.261-3.546 7.584C76.687 77.799 74.17 80.887 71.581 82.947zM91.143 117.097c-1.29 1.748-3.602 4.188-8.769 5.184-0.063 0.013-0.126 0.018-0.189 0.019-0.23 0-0.456-0.08-0.637-0.229-0.23-0.19-0.363-0.473-0.363-0.771v-4.797c0-0.553 0.448-1 1-1h8.153c0.377 0 0.723 0.212 0.892 0.549C91.4 116.389 91.367 116.793 91.143 117.097zM95.46 106.225c-0.487 2.081-0.988 3.835-1.533 5.359-0.142 0.398-0.519 0.664-0.942 0.664H82.185c-0.552 0-1-0.447-1-1v-5.251c0-0.553 0.448-1 1-1h12.301c0.305 0 0.594 0.14 0.784 0.379C95.459 105.615 95.529 105.928 95.46 106.225zM96.79 99.915l-0.206 1.033c-0.093 0.467-0.504 0.804-0.98 0.804H82.185c-0.552 0-1-0.447-1-1v-5.253c0-0.553 0.448-1 1-1h14.477c0.301 0 0.586 0.136 0.776 0.37 0.19 0.233 0.264 0.54 0.203 0.835C97.344 97.117 97.065 98.519 96.79 99.915zM100.463 85.345c-0.571 1.567-1.095 3.255-1.602 5.158-0.117 0.438-0.513 0.743-0.966 0.743h-15.71c-0.552 0-1-0.447-1-1v-5.244c0-0.553 0.448-1 1-1h17.338c0.326 0 0.632 0.159 0.82 0.427C100.53 84.696 100.575 85.038 100.463 85.345zM105.919 75.105c-1.202 1.569-2.288 3.286-3.227 5.103-0.172 0.332-0.514 0.541-0.888 0.541H82.185c-0.552 0-1-0.447-1-1v-3.083c0-0.179 0.048-0.354 0.139-0.509 0.41-0.693 0.804-1.397 1.183-2.123 0.172-0.33 0.514-0.537 0.887-0.537H105.125c0.38 0 0.728 0.216 0.896 0.558C106.19 74.396 106.15 74.803 105.919 75.105zM110.947 63.784c0.466 2.106 0.747 3.78 0.832 4.974 0.023 0.331-0.119 0.652-0.38 0.857-0.168 0.132-0.333 0.263-0.499 0.404-0.18 0.151-0.408 0.234-0.644 0.234H85.819c-0.332 0-0.642-0.165-0.828-0.441-0.183-0.271-0.22-0.614-0.103-0.918 0.322-0.069 0.645-0.173 0.967-0.311 0.617-0.264 1.159-0.63 1.667-1.035-0.084 0.233-0.155 0.475-0.242 0.705h22.442c-0.083-0.716-0.247-1.762-0.559-3.253h-19.392c0.41-0.648 0.756-1.326 1.064-2h19.135C110.439 63 110.845 63.326 110.947 63.784zM109.452 59.355c-0.189 0.247-0.483 0.393-0.795 0.393H92.054c0.207-0.676 0.384-1.344 0.523-2h14.765c-0.287-1.018-0.602-2.104-0.944-3.248H92.986c0.024-0.681 0.003-1.347-0.054-2h14.21c0.441 0 0.83 0.289 0.958 0.711 0.58 1.922 1.092 3.696 1.522 5.274C109.704 58.785 109.641 59.107 109.452 59.355z" fill="#ffffff" data-fill-palette-color="accent"></path><path d="M95.108 21.752l-0.956 4.497h2.63C96.185 24.63 95.622 23.119 95.108 21.752z" fill="#ffffff" data-fill-palette-color="accent"></path><path d="M35.391 33.499h-6.805c-0.381 1.067-0.765 2.152-1.151 3.251h8.646L35.391 33.499z" fill="#ffffff" data-fill-palette-color="accent"></path><path d="M83.185 110.248h9.087c0.325-0.976 0.637-2.051 0.941-3.251H83.185V110.248z" fill="#ffffff" data-fill-palette-color="accent"></path><path d="M83.185 89.246h13.945c0.318-1.148 0.644-2.223 0.985-3.244H83.185V89.246z" fill="#ffffff" data-fill-palette-color="accent"></path><path d="M83.185 99.752H94.784l0.044-0.223c0.198-1.007 0.398-2.016 0.606-3.03H83.185V99.752z" fill="#ffffff" data-fill-palette-color="accent"></path><path d="M37.038 43.999H24.946c-0.379 1.132-0.737 2.214-1.075 3.252h12.992C36.88 46.138 36.938 45.05 37.038 43.999z" fill="#ffffff" data-fill-palette-color="accent"></path><path d="M32.894 21.752c-0.514 1.367-1.077 2.878-1.674 4.497h2.63L32.894 21.752z" fill="#ffffff" data-fill-palette-color="accent"></path><path d="M35.727 110.248h9.087v-3.251H34.788C35.095 108.207 35.406 109.282 35.727 110.248z" fill="#ffffff" data-fill-palette-color="accent"></path><path d="M83.185 76.938v1.811h18.016c0.605-1.126 1.265-2.213 1.97-3.252H83.996C83.741 75.969 83.473 76.445 83.185 76.938z" fill="#ffffff" data-fill-palette-color="accent"></path><path d="M104.13 47.251c-0.338-1.038-0.696-2.12-1.075-3.252h-12.091c0.098 1.058 0.156 2.146 0.173 3.252H104.13z" fill="#ffffff" data-fill-palette-color="accent"></path><ellipse cx="75" cy="51.4997482" rx="1" ry="1.1079" fill="#ffffff" data-fill-palette-color="accent"></ellipse><path d="M83.185 120.048c2.33-0.615 3.855-1.561 4.933-2.545h-4.933V120.048z" fill="#ffffff" data-fill-palette-color="accent"></path><path d="M99.413 33.499H92.609L91.921 36.75h8.643C100.178 35.651 99.794 34.566 99.413 33.499z" fill="#ffffff" data-fill-palette-color="accent"></path><path d="M72.112 50.703c-0.662 0.366-1.205 0.812-1.594 1.189 0.537 0.306 1.104 0.532 1.687 0.712C72.078 52.26 72 51.89 72 51.5 72 51.223 72.046 50.959 72.112 50.703z" fill="#ffffff" data-fill-palette-color="accent"></path><path d="M78 51.5c0 0.371-0.074 0.722-0.189 1.053 0.555-0.157 1.066-0.33 1.469-0.497-0.442-0.389-0.884-0.717-1.323-0.995C77.977 51.205 78 51.35 78 51.5z" fill="#ffffff" data-fill-palette-color="accent"></path><path d="M83.779 44.49c-0.364-0.473-1.528-1.829-3.838-3.197-5.074-3.005-11.469-3.636-15.94-3.636-4.473 0-10.869 0.631-15.942 3.636-2.295 1.358-3.455 2.699-3.838 3.199-0.111 1.097-0.167 2.251-0.167 3.436 0 4.046 0.634 8.51 1.832 12.907 1.191 4.37 2.917 8.585 4.989 12.186 2.053 3.568 4.402 6.459 6.792 8.362 0.332 0.266 0.661 0.509 0.983 0.727h10.702c0.323-0.22 0.652-0.464 0.983-0.727 2.394-1.905 4.741-4.797 6.788-8.361 2.074-3.602 3.799-7.816 4.992-12.187 1.199-4.402 1.833-8.865 1.833-12.907C83.948 46.744 83.891 45.59 83.779 44.49zM67.446 46.168c5.55-3.697 12.557-1.578 12.851-1.488 0.527 0.164 0.821 0.724 0.658 1.251-0.163 0.526-0.722 0.822-1.251 0.659-0.064-0.021-6.406-1.92-11.15 1.242C68.384 47.945 68.191 48 68.001 48c-0.323 0-0.641-0.156-0.833-0.445C66.861 47.095 66.986 46.474 67.446 46.168zM47.703 44.68c0.295-0.092 7.3-2.211 12.851 1.488 0.46 0.306 0.584 0.927 0.278 1.387C60.64 47.844 60.322 48 59.999 48c-0.19 0-0.383-0.055-0.553-0.168-4.745-3.162-11.086-1.262-11.15-1.242-0.525 0.163-1.087-0.133-1.251-0.659C46.882 45.403 47.176 44.844 47.703 44.68zM52.8 55c-2.368 0-4.521-0.709-6.397-2.106-0.437-0.324-0.533-0.938-0.218-1.382C46.287 51.368 48.73 48 52.688 48c2.389 0 4.757 1.226 7.04 3.645 0.207 0.22 0.304 0.521 0.263 0.82-0.041 0.299-0.214 0.563-0.471 0.721C59.398 53.26 56.494 55 52.8 55zM66 77h-4c-0.552 0-1-0.447-1-1s0.448-1 1-1h4c0.552 0 1 0.447 1 1S66.552 77 66 77zM67.834 73.792h-7.667c-0.552 0-1-0.447-1-1 0-0.553 0.448-1 1-1h7.667c0.552 0 1 0.447 1 1C68.834 73.345 68.386 73.792 67.834 73.792zM69.502 66.549c-0.479 0.276-1.09 0.115-1.367-0.362l-0.301-0.518c-0.713 0.891-1.432 1.189-1.544 1.231-0.078 0.03-0.159 0.05-0.241 0.059-1.426 0.164-2.448-0.701-3.109-1.711-0.254 0.37-0.527 0.74-0.851 1.082C61.675 66.767 61.161 67 60.62 67c-0.08 0-0.16-0.005-0.241-0.016-0.769-0.098-1.517-0.679-2.001-1.554-0.743-1.342-0.385-2.981 0.958-4.382 0.163-0.17 0.401-0.331 0.844-0.624 0.205-0.136 0.543-0.36 0.745-0.517 0.057-0.661 0.233-2.706 0.776-8.993 0.047-0.551 0.53-0.967 1.082-0.91 0.55 0.047 0.958 0.532 0.91 1.082 0 0-0.79 9.155-0.802 9.306-0.062 0.674-0.643 1.06-1.605 1.698-0.225 0.149-0.431 0.28-0.531 0.366-0.239 0.252-1.066 1.212-0.627 2.006 0.207 0.375 0.443 0.526 0.506 0.539 0.339-0.4 0.63-0.839 0.938-1.303 0.246-0.37 0.492-0.738 0.763-1.078 0.234-0.295 0.614-0.433 0.981-0.356 0.368 0.074 0.663 0.35 0.764 0.711 0.005 0.018 0.598 1.936 1.598 2.001 0.226-0.143 0.801-0.592 1.212-1.67 0.138-0.36 0.469-0.609 0.853-0.641 0.386-0.028 0.752 0.161 0.946 0.494l1.176 2.023C70.142 65.659 69.98 66.271 69.502 66.549zM81.52 53.186C81.398 53.26 78.494 55 74.8 55c-2.368 0-4.521-0.709-6.397-2.106-0.437-0.324-0.533-0.938-0.218-1.382C68.287 51.368 70.73 48 74.688 48c2.389 0 4.757 1.226 7.04 3.645 0.207 0.22 0.304 0.521 0.263 0.82C81.951 52.764 81.777 53.028 81.52 53.186z" fill="#ffffff" data-fill-palette-color="accent"></path></svg></g></svg></g></svg></g><defs></defs></svg><rect width="395.52" height="105.22535271249751" fill="none" stroke="none" visibility="hidden"></rect></g></svg></g></svg>